HIERARCHY
ROOT SpineBase
{
  OFFSET 0.000000 0.000000 0.000000
  CHANNELS 6 Xposition Yposition Zposition Zrotation Xrotation Yrotation
  JOINT SpineMid
  {
    OFFSET -0.000000 27.760307 0.000000
    CHANNELS 3 Zrotation Xrotation Yrotation
    JOINT SpineShoulder
    {
      OFFSET -0.154091 20.731829 -0.686604
      CHANNELS 3 Zrotation Xrotation Yrotation
      JOINT Neck
      {
        OFFSET -0.084481 6.874050 -0.511692
        CHANNELS 3 Zrotation Xrotation Yrotation
        JOINT Head
        {
          OFFSET 0.096102 12.306484 -0.878322
          CHANNELS 3 Zrotation Xrotation Yrotation
          End Site
          {
            OFFSET 0 0 0
          }
        }
      }
      JOINT ShoulderLeft
      {
        OFFSET -14.843106 -1.283259 -0.841702
        CHANNELS 3 Zrotation Xrotation Yrotation
        JOINT ElbowLeft
        {
          OFFSET -4.533809 -24.962860 -0.515817
          CHANNELS 3 Zrotation Xrotation Yrotation
          JOINT WristLeft
          {
            OFFSET -1.756192 -19.412454 -5.707798
            CHANNELS 3 Zrotation Xrotation Yrotation
            JOINT HandLeft
            {
              OFFSET 1.173770 -3.990375 0.510587
              CHANNELS 3 Zrotation Xrotation Yrotation
              JOINT HandTipLeft
              {
                OFFSET -0.289433 -6.092892 -1.463559
                CHANNELS 3 Zrotation Xrotation Yrotation
                End Site
                {
                  OFFSET 0 0 0
                }
              }
              JOINT ThumbLeft
              {
                OFFSET 2.584383 -0.186701 -2.692467
                CHANNELS 3 Zrotation Xrotation Yrotation
                End Site
                {
                  OFFSET 0 0 0
                }
              }
            }
          }
        }
      }
      JOINT ShoulderRight
      {
        OFFSET 14.280936 -4.121328 0.237120
        CHANNELS 3 Zrotation Xrotation Yrotation
        JOINT ElbowRight
        {
          OFFSET -3.589689 -23.246253 -7.947179
          CHANNELS 3 Zrotation Xrotation Yrotation
          JOINT WristRight
          {
            OFFSET -6.636100 -19.385484 -11.492147
            CHANNELS 3 Zrotation Xrotation Yrotation
            JOINT HandRight
            {
              OFFSET 1.471584 -5.707576 -0.455580
              CHANNELS 3 Zrotation Xrotation Yrotation
              JOINT HandTipRight
              {
                OFFSET -1.221263 -4.684681 0.580327
                CHANNELS 3 Zrotation Xrotation Yrotation
                End Site
                {
                  OFFSET 0 0 0
                }
              }
              JOINT ThumbRight
              {
                OFFSET -3.472651 -1.093470 -0.897633
                CHANNELS 3 Zrotation Xrotation Yrotation
                End Site
                {
                  OFFSET 0 0 0
                }
              }
            }
          }
        }
      }
    }
  }
  JOINT HipLeft
  {
    OFFSET -7.310973 0.766056 -3.025527
    CHANNELS 3 Zrotation Xrotation Yrotation
    JOINT KneeLeft
    {
      OFFSET -2.225472 -31.594818 2.312220
      CHANNELS 3 Zrotation Xrotation Yrotation
      JOINT AnkleLeft
      {
        OFFSET -2.850659 -31.853426 8.233053
        CHANNELS 3 Zrotation Xrotation Yrotation
        JOINT FootLeft
        {
          OFFSET 3.135330 -6.133668 0.445560
          CHANNELS 3 Zrotation Xrotation Yrotation
          End Site
          {
            OFFSET 0 0 0
          }
        }
      }
    }
  }
  JOINT HipRight
  {
    OFFSET 5.641000 0.311233 -2.992258
    CHANNELS 3 Zrotation Xrotation Yrotation
    JOINT KneeRight
    {
      OFFSET -0.014276 -31.583402 4.932621
      CHANNELS 3 Zrotation Xrotation Yrotation
      JOINT AnkleRight
      {
        OFFSET -0.642083 -30.708592 9.734158
        CHANNELS 3 Zrotation Xrotation Yrotation
        JOINT FootRight
        {
          OFFSET 0.085801 -3.269759 -13.853825
          CHANNELS 3 Zrotation Xrotation Yrotation
          End Site
          {
            OFFSET 0 0 0
          }
        }
      }
    }
  }
}
MOTION
Frames: 10
Frame Time: 0.033333
108.285134 70.211468 400.018918 0.000000 0.000000 -0.147176 -0.000000 0.000000 0.147176 -0.000000 0.000000 0.000000 -0.000000 0.000000 0.000000 0.000000 0.000000 0.000000 -0.000000 0.000000 0.000000 -0.000000 0.000000 0.000000 -0.000000 0.000000 0.000000 -0.000000 0.000000 0.000000 0.000000 0.000000 0.000000 0.000000 0.000000 0.000000 -0.000000 0.000000 0.000000 -0.000000 0.000000 0.000000 -0.000000 0.000000 0.000000 -0.000000 0.000000 0.000000 0.000000 0.000000 0.000000 0.000000 0.000000 0.000000 -0.000000 0.000000 0.147176 -0.000000 0.000000 0.000000 -0.000000 0.000000 0.000000 0.000000 0.000000 0.000000 -0.000000 0.000000 0.147176 -0.000000 0.000000 0.000000 -0.000000 0.000000 0.000000 0.000000 0.000000 0.000000
108.360017 70.154862 400.030718 -0.195366 -0.131305 -0.036379 0.195283 0.131429 0.035931 -0.000000 0.000000 0.000000 -0.000000 0.000000 0.000000 0.000000 0.000000 0.000000 -0.000000 0.000000 0.000000 0.023626 -0.991271 0.083151 -0.956561 3.791960 0.663942 -1.509387 -5.395715 -0.160985 0.000000 0.000000 0.000000 0.000000 0.000000 0.000000 -4.479059 4.075082 1.042913 10.316610 -10.446216 -1.397223 -0.842650 -2.253338 -1.008658 -2.402971 6.799941 3.356602 0.000000 0.000000 0.000000 0.000000 0.000000 0.000000 0.195283 0.131429 0.035931 -0.000000 0.000000 0.000000 5.931950 1.756540 1.207549 0.000000 0.000000 0.000000 0.195283 0.131429 0.035931 -0.000000 0.000000 0.000000 -0.639115 -4.273421 3.054604 0.000000 0.000000 0.000000
108.427087 70.112411 400.037611 -0.399165 -0.256967 0.137325 0.399783 0.256004 -0.139113 -0.000000 0.000000 0.000000 -0.781007 -1.198987 -0.054507 0.000000 0.000000 0.000000 0.403786 -1.217480 0.217263 -0.379269 -0.521112 -0.058490 -2.167814 7.268745 1.386548 -2.464136 -10.238567 -0.612124 0.000000 0.000000 0.000000 0.000000 0.000000 0.000000 -7.431190 6.617228 1.894673 18.987511 -19.310830 -1.108397 -1.473741 -5.429063 -1.974304 -0.329702 14.325260 6.349353 0.000000 0.000000 0.000000 0.000000 0.000000 0.000000 0.399783 0.256004 -0.139113 -0.000000 0.000000 0.000000 10.402561 3.226438 2.023417 0.000000 0.000000 0.000000 0.399783 0.256004 -0.139113 -0.000000 0.000000 0.000000 -1.064806 -8.590258 6.165147 0.000000 0.000000 0.000000
108.486344 70.084116 400.039597 -0.611485 -0.377041 0.373834 -0.241092 -0.099401 -0.407568 0.137923 0.030354 -0.027260 -0.359150 -1.236582 -0.014985 0.000000 0.000000 0.000000 1.154039 -1.298352 0.367723 -0.433219 -0.511223 -0.098683 -3.612267 10.338127 2.148687 -2.851266 -14.410998 -1.205045 0.000000 0.000000 0.000000 0.000000 0.000000 0.000000 -8.299049 8.296661 2.525568 25.819122 -26.021565 0.114578 -2.374204 -8.542955 -2.625562 20.118496 23.410609 1.720012 0.000000 0.000000 0.000000 0.000000 0.000000 0.000000 0.613945 0.373022 -0.377845 -0.000000 0.000000 0.000000 13.432081 4.341513 2.542552 0.000000 0.000000 0.000000 0.613945 0.373022 -0.377845 -0.000000 0.000000 0.000000 -1.260082 -12.526643 9.090413 0.000000 0.000000 0.000000
108.537789 70.069978 400.036677 -0.832422 -0.491575 0.673108 -0.296104 -0.117444 -0.718474 0.166242 0.038555 -0.037248 -0.342663 -1.522313 -0.013723 0.000000 0.000000 0.000000 1.324092 -1.647185 0.473870 -0.394250 -0.338234 -0.146528 -5.243977 12.914330 2.917697 -2.651755 -17.824884 -1.793270 0.000000 0.000000 0.000000 0.000000 0.000000 0.000000 -8.322799 8.509033 2.663597 30.290430 -30.298325 1.446782 -4.251751 -10.215537 -2.755587 69.020730 28.251722 -27.096879 0.000000 0.000000 0.000000 0.000000 0.000000 0.000000 0.838169 0.481710 -0.680203 -0.000000 0.000000 0.000000 15.087239 5.081336 2.844129 0.000000 0.000000 0.000000 0.838169 0.481710 -0.680203 -0.000000 0.000000 0.000000 -1.282323 -15.620359 11.536646 0.000000 0.000000 0.000000
108.581420 70.069995 400.028850 -1.062079 -0.600613 1.035151 -0.338352 -0.127858 -1.092333 0.185745 0.045825 -0.047628 -0.260879 -1.748617 -0.008377 0.000000 0.000000 0.000000 1.385473 -1.952759 0.570433 -0.261459 -0.009682 -0.202122 -6.996450 14.931060 3.648931 -1.848916 -20.418246 -2.249248 0.000000 0.000000 0.000000 0.000000 0.000000 0.000000 -7.055556 7.581990 2.374541 31.842833 -32.075303 2.173338 -7.885924 -9.098285 -2.122842 83.700018 34.968398 -50.518100 0.000000 0.000000 0.000000 0.000000 0.000000 0.000000 0.194215 0.645623 -1.104500 0.879628 -0.047376 0.068111 15.423306 5.445081 2.978176 0.000000 0.000000 0.000000 1.072811 0.581224 -1.046159 -0.000000 0.000000 0.000000 -1.244863 -17.487426 13.216581 0.000000 0.000000 0.000000
108.643980 70.085688 400.022580 -1.308315 -0.712135 1.381372 -0.327690 -0.097309 -1.449132 0.222761 0.068166 -0.054769 -0.267177 -2.168458 -0.012842 0.000000 0.000000 0.000000 1.178766 -2.328706 0.666363 0.161317 0.846899 -0.340489 -9.798987 15.194120 3.998045 -1.003864 -20.641992 -1.975224 0.000000 0.000000 0.000000 0.000000 0.000000 0.000000 -4.609148 5.533153 1.713999 31.538075 -32.088282 2.123239 -18.582446 2.613020 2.868131 64.197183 46.251625 -40.613098 0.000000 0.000000 0.000000 0.000000 0.000000 0.000000 0.252017 0.654116 -1.459616 1.072086 0.053526 0.074242 13.622778 5.391023 2.937624 0.000000 0.000000 0.000000 1.325195 0.680203 -1.397370 -0.000000 0.000000 0.000000 -1.114978 -19.548393 14.792319 0.000000 0.000000 0.000000
108.679163 70.118146 400.011419 -1.564170 -0.823319 1.860588 -0.344182 -0.090988 -1.941015 0.228228 0.067573 -0.066215 0.019740 -2.255028 0.008504 0.000000 0.000000 0.000000 0.904295 -2.530689 0.743277 0.744259 1.385904 -0.456877 -12.081633 16.097316 4.553091 2.220101 -22.521613 -1.859125 0.000000 0.000000 0.000000 0.000000 0.000000 0.000000 -0.313936 1.747951 0.706634 26.513844 -28.977807 1.385228 -27.161063 18.098563 9.297354 37.422754 33.586658 -15.534170 0.000000 0.000000 0.000000 0.000000 0.000000 0.000000 0.350342 0.678749 -1.947831 1.235883 0.135286 0.079529 12.855473 -2.237423 0.043470 0.000000 0.000000 0.000000 1.590220 0.771794 -1.882538 -0.000000 0.000000 0.000000 -1.136420 -19.547201 15.107761 0.000000 0.000000 0.000000
108.675621 70.167213 399.996303 -1.804285 -0.911239 2.471068 -0.372191 -0.101576 -2.564243 0.201774 0.062372 -0.079638 0.319520 -2.279963 0.030343 0.000000 0.000000 0.000000 0.652531 -2.581101 0.794664 1.195619 1.960634 -0.517698 -13.909254 16.561866 4.938314 5.346482 -21.239488 -1.511066 0.000000 0.000000 0.000000 0.000000 0.000000 0.000000 5.248705 -3.282007 -0.259506 18.842436 -22.622986 0.339385 -39.652493 28.252184 18.996725 31.813259 11.796386 -5.685972 0.000000 0.000000 0.000000 0.000000 0.000000 0.000000 0.505659 0.632138 -2.560548 1.326021 0.259680 0.075825 9.698789 -0.912391 0.303884 0.000000 0.000000 0.000000 1.842088 0.832152 -2.498796 -0.000000 0.000000 0.000000 -1.331106 -17.486397 14.213347 0.000000 0.000000 0.000000
108.674291 70.205281 399.957579 -2.074760 -1.008558 3.224889 -0.376885 -0.106009 -3.331956 0.187022 0.056147 -0.092622 0.771921 -2.025365 0.065736 0.000000 0.000000 0.000000 0.506634 -2.570244 0.835715 1.305257 2.850301 -0.512420 -13.429826 16.763997 5.142971 6.909292 -22.368928 -1.708782 0.000000 0.000000 0.000000 0.000000 0.000000 0.000000 11.202681 -8.978924 -0.757427 9.812930 -13.878987 0.074218 -43.740230 27.387091 21.205605 31.310873 4.454765 -4.300651 0.000000 0.000000 0.000000 0.000000 0.000000 0.000000 0.701158 0.590485 -3.317466 2.193059 0.477839 0.260342 -1.517849 14.649322 7.505331 0.000000 0.000000 0.000000 2.128464 0.889594 -3.259678 0.855408 -0.523690 0.285646 -2.471934 -13.167624 11.996384 0.000000 0.000000 0.000000
